<svg width="24" height="23" viewBox="0 0 24 23" fill="none" xmlns="http://www.w3.org/2000/svg">
<path fill-rule="evenodd" clip-rule="evenodd" d="M0.75 11.2439C0.75 16.7968 4.8125 21.4138 10.125 22.3497L10.1877 22.2996C10.1668 22.2956 10.1459 22.2915 10.125 22.2873V14.3635H7.3125V11.2439H10.125V8.74822C10.125 5.94057 11.9375 4.38076 14.5 4.38076C15.3125 4.38076 16.1875 4.50555 17 4.63033V7.50037H15.5625C14.1875 7.50037 13.875 8.18669 13.875 9.06018V11.2439H16.875L16.375 14.3635H13.875V22.2873C13.8541 22.2915 13.8332 22.2956 13.8123 22.2996L13.875 22.3497C19.1875 21.4138 23.25 16.7968 23.25 11.2439C23.25 5.06708 18.1875 0.0133057 12 0.0133057C5.8125 0.0133057 0.75 5.06708 0.75 11.2439Z" fill="black"/>
</svg>
