<svg width="24" height="24" viewBox="0 0 24 24" fill="none" xmlns="http://www.w3.org/2000/svg">
<path d="M12 8.34533C9.84962 8.34533 8.09474 10.0972 8.09474 12.2439C8.09474 14.3906 9.84962 16.1424 12 16.1424C14.1504 16.1424 15.9053 14.3906 15.9053 12.2439C15.9053 10.0972 14.1504 8.34533 12 8.34533ZM23.7129 12.2439C23.7129 10.6295 23.7276 9.02969 23.6367 7.41822C23.5459 5.54645 23.1182 3.88525 21.7471 2.51652C20.3731 1.14487 18.7119 0.720797 16.8369 0.630133C15.2197 0.539469 13.6172 0.554093 12.0029 0.554093C10.3858 0.554093 8.78322 0.539469 7.16896 0.630133C5.29396 0.720797 3.6299 1.14779 2.25881 2.51652C0.884782 3.88818 0.459978 5.54645 0.369157 7.41822C0.278337 9.03262 0.292986 10.6324 0.292986 12.2439C0.292986 13.8553 0.278337 15.458 0.369157 17.0695C0.459978 18.9413 0.887712 20.6025 2.25881 21.9712C3.63283 23.3429 5.29396 23.7669 7.16896 23.8576C8.78615 23.9483 10.3887 23.9336 12.0029 23.9336C13.6201 23.9336 15.2227 23.9483 16.8369 23.8576C18.7119 23.7669 20.376 23.3399 21.7471 21.9712C23.1211 20.5996 23.5459 18.9413 23.6367 17.0695C23.7305 15.458 23.7129 13.8583 23.7129 12.2439ZM12 18.2423C8.67482 18.2423 5.99123 15.5633 5.99123 12.2439C5.99123 8.9244 8.67482 6.24544 12 6.24544C15.3252 6.24544 18.0088 8.9244 18.0088 12.2439C18.0088 15.5633 15.3252 18.2423 12 18.2423ZM18.2549 7.40067C17.4785 7.40067 16.8516 6.7748 16.8516 5.99977C16.8516 5.22474 17.4785 4.59887 18.2549 4.59887C19.0313 4.59887 19.6582 5.22474 19.6582 5.99977C19.6585 6.1838 19.6223 6.36607 19.5519 6.53614C19.4814 6.70621 19.3781 6.86074 19.2477 6.99087C19.1174 7.121 18.9626 7.22418 18.7922 7.2945C18.6218 7.36482 18.4392 7.4009 18.2549 7.40067Z" fill="black"/>
</svg>
