<svg width="24" height="21" viewBox="0 0 24 21" fill="none" xmlns="http://www.w3.org/2000/svg">
<path fill-rule="evenodd" clip-rule="evenodd" d="M20.7147 5.36337C20.7231 5.5816 20.726 5.79974 20.726 6.01797C20.726 12.6343 16.0637 20.2724 7.53792 20.2724C4.91896 20.2724 2.48371 19.4392 0.431885 18.0207C0.794582 18.0604 1.16293 18.0902 1.53694 18.0902C3.70841 18.0902 5.70842 17.2866 7.29487 15.9375C5.26659 15.9077 3.55392 14.4496 2.96324 12.4657C3.2468 12.5252 3.53882 12.555 3.83746 12.555C4.25856 12.555 4.66742 12.4956 5.05932 12.3765C2.93684 11.9202 1.33816 9.89671 1.33816 7.46642C1.33816 7.43666 1.33816 7.42669 1.33816 7.40685C1.9637 7.77387 2.67966 8.0019 3.43991 8.03166C2.19449 7.12898 1.37582 5.5915 1.37582 3.85558C1.37582 2.94298 1.6038 2.07995 2.00513 1.33598C4.29059 4.37136 7.7075 6.36521 11.5596 6.57352C11.4805 6.2065 11.44 5.81973 11.44 5.43287C11.44 2.66532 13.5153 0.423462 16.0759 0.423462C17.4089 0.423462 18.6129 1.02864 19.4579 2.00075C20.5159 1.78252 21.5069 1.36593 22.4038 0.790601C22.0562 1.9611 21.3223 2.94293 20.3632 3.55795C21.3015 3.43891 22.1965 3.17129 23.0265 2.77451C22.4038 3.77638 21.62 4.65908 20.7147 5.36337Z" fill="black"/>
</svg>
