<svg width="26" height="18" viewBox="0 0 26 18" fill="none" xmlns="http://www.w3.org/2000/svg">
<path fill-rule="evenodd" clip-rule="evenodd" d="M22.9039 0.660194C23.9881 0.951597 24.843 1.80499 25.1349 2.88734C25.677 4.86471 25.6561 8.98598 25.6561 8.98598C25.6561 8.98598 25.6561 13.0864 25.1349 15.0638C24.843 16.1462 23.9881 16.9995 22.9039 17.2909C20.9231 17.8113 12.9999 17.8113 12.9999 17.8113C12.9999 17.8113 5.09764 17.8113 3.096 17.2701C2.01178 16.9787 1.15692 16.1253 0.86501 15.043C0.34375 13.0864 0.34375 8.96516 0.34375 8.96516C0.34375 8.96516 0.34375 4.86471 0.86501 2.88734C1.15692 1.80499 2.03263 0.930782 3.096 0.63938C5.07679 0.119019 12.9999 0.119019 12.9999 0.119019C12.9999 0.119019 20.9231 0.119019 22.9039 0.660194ZM17.0658 8.82064L10.477 12.6089V5.03241L17.0658 8.82064Z" fill="black"/>
</svg>
